<?xml version="1.0" standalone="no"?>
<!DOCTYPE svg PUBLIC "-//W3C//DTD SVG 20010904//EN"
 "http://www.w3.org/TR/2001/REC-SVG-20010904/DTD/svg10.dtd">
<svg version="1.0" xmlns="http://www.w3.org/2000/svg"
 width="607.000000pt" height="625.000000pt" viewBox="0 0 607.000000 625.000000"
 preserveAspectRatio="xMidYMid meet">

<g transform="translate(0.000000,625.000000) scale(0.100000,-0.100000)"
fill="#000000" stroke="none">
<path d="M2763 6201 c-83 -3 -155 -9 -159 -13 -4 -5 1 -8 11 -8 33 0 6 -13
-43 -21 -119 -18 -335 -59 -340 -64 -3 -3 -7 -13 -8 -21 -2 -11 3 -14 14 -9
47 18 273 68 392 86 104 16 201 22 418 26 155 3 282 9 282 14 0 5 -80 9 -179
9 -98 0 -191 2 -207 3 -16 2 -97 1 -181 -2z"/>
<path d="M3750 6113 c0 -5 26 -14 58 -21 69 -14 82 -15 82 -3 0 4 -24 11 -54
15 -30 3 -61 9 -70 12 -9 3 -16 2 -16 -3z"/>
<path d="M2088 6023 c7 -3 16 -2 19 1 4 3 -2 6 -13 5 -11 0 -14 -3 -6 -6z"/>
<path d="M4038 6023 c7 -3 16 -2 19 1 4 3 -2 6 -13 5 -11 0 -14 -3 -6 -6z"/>
<path d="M2030 6010 c0 -13 11 -13 30 0 12 8 11 10 -7 10 -13 0 -23 -4 -23
-10z"/>
<path d="M4070 6016 c0 -2 7 -6 15 -10 8 -3 15 -1 15 4 0 6 -7 10 -15 10 -8 0
-15 -2 -15 -4z"/>
<path d="M1885 5950 c-3 -5 -2 -10 4 -10 5 0 13 5 16 10 3 6 2 10 -4 10 -5 0
-13 -4 -16 -10z"/>
<path d="M4220 5957 c0 -3 15 -10 32 -16 18 -6 28 -7 23 -2 -12 10 -55 25 -55
18z"/>
<path d="M1823 5929 c-33 -10 -54 -29 -31 -29 7 1 29 9 48 20 38 21 33 23 -17
9z"/>
<path d="M4310 5922 c0 -5 7 -13 16 -16 10 -4 14 -1 12 6 -5 15 -28 23 -28 10z"/>
<path d="M1705 5860 c-3 -6 1 -7 9 -4 18 7 21 14 7 14 -6 0 -13 -4 -16 -10z"/>
<path d="M1613 5826 c-24 -11 -31 -26 -13 -26 5 0 24 9 42 20 25 15 28 20 13
19 -11 -1 -30 -6 -42 -13z"/>
<path d="M4490 5831 c0 -7 44 -31 55 -31 17 0 0 17 -25 27 -16 6 -30 8 -30 4z"/>
<path d="M1524 5765 c-10 -8 -27 -15 -36 -15 -18 0 -26 -20 -9 -20 14 0 71 34
71 43 0 10 -3 9 -26 -8z"/>
<path d="M4594 5772 c10 -17 82 -53 90 -45 12 13 6 24 -11 20 -10 -2 -33 5
-52 17 -19 11 -31 14 -27 8z"/>
<path d="M1327 5647 c-15 -13 -25 -26 -21 -30 8 -8 64 30 64 44 0 14 -13 10
-43 -14z"/>
<path d="M4789 5641 c25 -22 41 -27 41 -12 0 5 -8 11 -17 15 -10 3 -25 9 -33
12 -8 3 -4 -4 9 -15z"/>
<path d="M1233 5573 c-22 -15 -31 -33 -15 -33 4 1 21 12 37 25 33 28 15 34
-22 8z"/>
<path d="M4892 5564 c10 -10 20 -16 22 -13 3 3 -5 11 -17 18 -21 13 -21 12 -5
-5z"/>
<path d="M1140 5490 c-19 -17 -42 -30 -52 -30 -10 0 -18 -7 -18 -17 0 -22 -61
-83 -84 -83 -9 0 -16 -8 -16 -18 0 -23 -40 -62 -63 -62 -10 0 -17 -8 -17 -18
0 -10 -13 -31 -30 -47 -16 -16 -30 -31 -30 -35 0 -3 62 55 138 130 75 75 157
153 181 173 25 20 40 37 35 37 -5 -1 -25 -14 -44 -30z"/>
<path d="M5000 5476 c0 -2 8 -10 18 -17 15 -13 16 -12 3 4 -13 16 -21 21 -21
13z"/>
<path d="M1720 5357 c0 -49 -36 -276 -55 -354 -18 -71 -62 -192 -81 -221 0 -1
-35 15 -75 37 -41 22 -104 51 -141 65 -83 32 -278 76 -278 64 0 -5 23 -55 50
-111 48 -98 92 -242 106 -345 l6 -48 -243 -18 c-134 -10 -281 -21 -326 -23
-46 -3 -83 -9 -83 -13 0 -5 30 -37 67 -71 157 -150 247 -261 300 -373 17 -37
17 -39 0 -50 -10 -6 -106 -73 -215 -149 -108 -76 -204 -142 -212 -147 -22 -13
-9 -20 59 -31 151 -24 305 -106 390 -207 22 -28 41 -52 41 -55 0 -3 -65 -70
-145 -149 -137 -135 -168 -178 -127 -178 28 0 346 -108 350 -119 2 -5 -16 -82
-38 -171 -23 -89 -40 -163 -38 -165 2 -2 71 2 153 9 83 7 153 10 156 7 3 -3
12 -58 18 -121 7 -63 13 -116 15 -117 5 -5 166 62 166 70 0 4 -18 31 -39 60
-147 197 -256 639 -250 1012 2 69 3 62 10 -50 18 -286 67 -531 147 -735 93
-236 174 -327 358 -400 83 -34 85 -36 82 -88 l-3 -45 -294 -98 c-161 -54 -296
-101 -299 -103 -3 -3 -10 -27 -17 -53 -13 -47 -238 -837 -275 -962 -14 -48
-18 -87 -15 -158 5 -123 16 -156 58 -168 20 -6 31 -16 30 -25 -3 -15 38 -40
66 -40 8 0 29 -11 48 -26 18 -14 37 -23 42 -19 5 3 12 1 16 -5 3 -5 -3 -10
-14 -10 -12 0 -21 -5 -21 -11 0 -6 6 -9 14 -6 8 3 22 -1 33 -9 10 -7 35 -18
56 -24 26 -8 37 -16 37 -29 0 -18 42 -32 140 -45 14 -2 39 -9 55 -17 17 -7 37
-14 45 -14 8 -1 21 -3 28 -4 6 0 12 -9 12 -19 0 -15 18 -23 100 -43 73 -17 99
-27 95 -37 -5 -14 -5 -15 80 -33 33 -7 74 -18 90 -25 17 -7 57 -15 90 -19 92
-10 112 -15 95 -25 -24 -15 3 -19 175 -30 207 -12 1356 -9 1503 4 97 9 112 13
112 28 0 13 8 18 29 18 16 0 63 7 103 15 78 17 182 34 263 44 40 5 49 9 47 24
-2 14 5 17 35 17 21 0 67 7 103 16 36 8 77 17 93 19 37 5 47 13 40 30 -3 10 2
15 16 15 22 0 118 30 165 51 14 7 26 20 26 31 0 11 7 18 19 18 10 0 30 9 44
20 14 11 29 20 34 19 21 -4 33 2 33 16 0 8 7 35 16 61 13 39 14 59 4 128 -6
44 -12 114 -13 155 -1 65 1 75 21 91 12 10 22 25 22 34 0 9 8 16 18 16 9 0 28
9 42 20 14 11 32 20 41 20 18 0 39 19 39 36 0 19 45 64 63 64 10 0 20 14 27
39 5 21 16 44 24 50 7 6 16 25 20 42 4 21 10 29 20 26 17 -7 66 42 66 65 0 9
9 18 21 20 21 3 32 19 65 95 12 26 25 42 34 40 9 -1 16 7 18 19 3 20 62 87 62
70 0 -5 7 -3 15 4 8 7 15 20 15 29 0 9 7 29 15 45 8 15 15 35 15 42 0 20 30
65 40 59 4 -3 12 1 17 8 10 13 38 98 35 109 -1 4 5 23 13 42 36 85 10 62 -44
-40 -170 -322 -406 -626 -656 -845 -58 -51 -105 -100 -105 -108 0 -9 7 -54 15
-100 8 -47 13 -87 11 -89 -6 -5 -23 59 -37 135 -25 137 -89 287 -155 369 -24
30 -44 57 -44 61 1 5 26 24 56 43 67 42 211 189 254 258 26 42 38 52 89 71
157 57 210 229 104 342 -20 22 -23 31 -14 47 6 11 14 46 17 78 4 33 13 76 21
98 16 46 17 107 3 190 -6 34 -16 129 -24 212 -12 134 -17 159 -44 215 -88 182
-165 297 -280 420 -72 76 -99 98 -134 108 -23 7 -92 39 -153 71 -60 32 -135
65 -165 73 -263 74 -634 30 -894 -106 -108 -56 -298 -239 -391 -375 -36 -53
-78 -114 -95 -136 -39 -51 -51 -97 -44 -171 5 -53 0 -75 -40 -194 -50 -146
-58 -222 -31 -287 8 -19 39 -75 70 -124 30 -50 55 -92 55 -95 0 -2 -13 -11
-29 -20 -64 -33 -92 -121 -67 -208 20 -68 52 -108 110 -135 47 -23 122 -33
119 -17 -2 6 -16 48 -33 94 -42 116 -33 121 14 9 67 -160 151 -266 291 -371
196 -146 427 -217 715 -219 96 -1 108 -3 70 -10 -120 -24 -440 22 -617 88 -52
20 -96 34 -97 32 -46 -62 -141 -253 -171 -344 -28 -84 -61 -294 -71 -451 -4
-57 -11 -103 -15 -103 -5 0 -9 11 -9 25 0 49 -140 625 -200 825 -16 52 -70
239 -120 415 -50 176 -95 324 -99 328 -5 5 -66 22 -137 38 -133 31 -340 91
-384 113 -22 10 -25 19 -28 68 l-3 56 50 17 c80 26 164 87 207 148 44 63 45
63 177 102 53 16 97 33 97 37 0 5 -27 41 -60 81 -33 41 -60 83 -60 94 0 24 8
26 130 43 47 7 89 16 94 20 5 5 -10 57 -33 118 -22 60 -41 114 -41 119 0 5 27
17 60 27 110 33 280 115 280 135 0 4 -46 32 -102 61 -103 56 -221 141 -226
164 -2 8 31 25 90 45 156 54 279 109 372 169 49 31 89 61 88 66 -1 8 -307 143
-380 167 -18 6 -32 17 -30 23 2 7 90 93 196 191 106 98 189 181 185 185 -4 4
-118 24 -253 44 -135 21 -247 40 -250 42 -2 3 1 14 8 25 61 97 293 502 290
505 -3 2 -110 -34 -238 -81 -129 -47 -240 -86 -248 -87 -39 -7 -76 210 -76
449 -1 146 -4 183 -14 183 -20 0 -134 -65 -232 -131 -91 -62 -191 -153 -257
-233 l-40 -49 -41 54 c-23 30 -62 83 -87 119 -50 73 -243 291 -262 298 -7 2
-13 -3 -13 -11z m76 -1378 c132 -50 208 -180 183 -314 -13 -72 -20 -75 -109
-59 -115 20 -286 15 -395 -12 -20 -5 -25 0 -36 33 -48 146 33 302 184 354 69
24 105 23 173 -2z m722 -135 c99 -39 166 -90 170 -130 4 -41 -30 -130 -49
-127 -8 1 -57 12 -109 23 -58 13 -154 24 -245 28 l-150 7 -3 74 c-4 104 9 129
78 155 8 3 65 4 125 2 92 -3 122 -8 183 -32z m1495 -1314 c59 -66 82 -132 81
-235 0 -66 -5 -91 -28 -143 -84 -183 -324 -264 -507 -171 -53 26 -147 116
-170 161 -25 49 -42 141 -35 183 l6 32 143 6 c156 6 308 38 374 78 42 26 73
73 73 112 0 15 4 27 9 27 5 0 29 -23 54 -50z m404 -39 c48 -66 230 -118 458
-129 l130 -7 3 -32 c5 -46 -33 -163 -67 -210 -71 -98 -183 -153 -311 -153
-169 0 -312 102 -360 257 -11 36 -20 75 -20 88 0 52 42 156 87 216 l47 63 7
-33 c4 -19 16 -45 26 -60z m-2626 -468 c-110 -217 -321 -748 -321 -809 0 -19
42 -61 158 -159 52 -43 96 -84 99 -91 5 -15 -36 -68 -76 -99 -19 -14 -16 -7
12 30 20 26 37 53 37 60 0 6 -52 58 -116 114 -63 57 -120 112 -125 124 -11 23
13 101 115 372 88 237 209 495 232 495 3 0 -4 -17 -15 -37z m694 -69 c56 -78
133 -210 178 -306 125 -263 185 -425 169 -455 -11 -20 -135 -143 -189 -188
-18 -15 -33 -35 -33 -45 0 -16 57 -75 203 -210 62 -58 70 -85 42 -145 -16 -36
-19 -23 -5 25 5 19 8 42 5 51 -3 9 -49 55 -103 102 -143 126 -172 155 -172
176 0 10 47 61 114 122 87 79 115 110 115 130 3 83 -204 530 -336 728 -35 52
-63 96 -63 99 0 12 34 -26 75 -84z m-655 -290 c-27 -701 -28 -720 -25 -329 2
307 19 634 32 621 2 -2 -1 -133 -7 -292z m575 127 c13 -72 30 -181 35 -243 19
-205 29 -352 29 -413 -1 -69 -19 89 -39 338 -6 82 -23 212 -36 290 -14 78 -28
156 -30 172 -11 76 17 -23 41 -144z"/>
<path d="M5132 5359 c2 -7 10 -15 17 -17 8 -3 12 1 9 9 -2 7 -10 15 -17 17 -8
3 -12 -1 -9 -9z"/>
<path d="M5251 5235 c23 -25 45 -45 47 -45 3 0 -6 13 -21 28 -15 15 -27 36
-27 45 0 10 -8 17 -21 17 -17 0 -14 -7 22 -45z"/>
<path d="M776 5119 c-15 -17 -26 -33 -23 -35 2 -3 16 11 31 31 33 43 29 46 -8
4z"/>
<path d="M693 5027 c-17 -17 -33 -43 -36 -56 -6 -26 -5 -25 42 37 40 52 36 64
-6 19z"/>
<path d="M606 4923 c-15 -43 -24 -73 -21 -73 4 0 55 76 55 83 0 15 -28 6 -34
-10z"/>
<path d="M502 4735 c-17 -37 -14 -45 4 -12 9 16 14 31 11 33 -2 2 -9 -7 -15
-21z"/>
<path d="M421 4646 c-6 -7 -8 -16 -4 -19 3 -4 -6 -25 -21 -47 -14 -22 -26 -51
-26 -65 0 -19 -5 -25 -17 -23 -18 3 -28 -22 -37 -104 l-6 -53 22 45 c131 265
136 276 117 277 -10 1 -22 -4 -28 -11z"/>
<path d="M5727 4555 c9 -19 18 -33 21 -31 4 5 -26 66 -33 66 -3 0 3 -16 12
-35z"/>
<path d="M5790 4428 c0 -7 5 -20 10 -28 8 -12 10 -9 10 13 0 15 -4 27 -10 27
-5 0 -10 -6 -10 -12z"/>
<path d="M243 4208 c-10 -48 -10 -68 1 -57 2 2 11 28 19 57 12 40 13 52 3 52
-7 0 -17 -23 -23 -52z"/>
<path d="M5881 4200 c15 -45 24 -54 15 -15 -4 17 -12 34 -17 40 -5 5 -4 -6 2
-25z"/>
<path d="M226 4125 c-3 -9 -6 -22 -5 -28 0 -7 5 -1 10 12 5 13 8 26 5 28 -2 2
-6 -3 -10 -12z"/>
<path d="M151 3873 l1 -58 12 50 c13 51 12 65 -5 65 -5 0 -9 -26 -8 -57z"/>
<path d="M5971 3898 c1 -13 5 -36 9 -53 7 -26 8 -22 9 23 0 29 -3 52 -9 52 -5
0 -9 -10 -9 -22z"/>
<path d="M102 3500 c0 -14 2 -19 5 -12 2 6 2 18 0 25 -3 6 -5 1 -5 -13z"/>
<path d="M93 3375 c0 -38 2 -53 4 -32 2 20 2 52 0 70 -2 17 -4 1 -4 -38z"/>
<path d="M57 3200 c-10 -38 -8 -358 2 -365 5 -3 11 7 13 22 2 18 9 -2 20 -57
10 -47 24 -114 31 -150 8 -36 18 -90 22 -120 8 -62 23 -109 24 -77 1 10 5 16
10 13 4 -3 -2 43 -15 102 -35 162 -56 322 -63 477 -4 86 -10 139 -16 137 -5
-2 -13 7 -16 20 l-5 23 -7 -25z"/>
<path d="M5987 2615 c-19 -92 -58 -237 -91 -335 -20 -59 -32 -108 -27 -113 12
-12 20 4 42 86 39 151 46 172 60 172 16 0 32 109 27 185 l-3 45 -8 -40z"/>
<path d="M191 2424 c0 -11 3 -14 6 -6 3 7 2 16 -1 19 -3 4 -6 -2 -5 -13z"/>
<path d="M195 2383 c4 -10 19 -66 33 -125 21 -87 30 -108 44 -108 16 0 16 5
-6 68 -14 37 -32 93 -41 125 -9 31 -21 57 -27 57 -6 0 -7 -7 -3 -17z"/>
<path d="M290 2129 c0 -9 4 -29 9 -45 5 -16 15 -50 22 -76 7 -27 17 -48 21
-48 19 0 15 26 -16 102 -20 46 -35 76 -36 67z"/>
<path d="M5802 2030 c-13 -31 -17 -52 -11 -56 6 -3 12 -4 15 -2 5 6 23 102 20
106 -2 1 -12 -20 -24 -48z"/>
<path d="M370 1938 c0 -10 9 -33 20 -53 11 -20 20 -44 20 -53 0 -24 26 -59 36
-49 4 4 -11 45 -34 90 -23 45 -41 74 -42 65z"/>
<path d="M475 1735 c4 -16 13 -38 22 -47 8 -9 12 -21 9 -26 -10 -17 5 -42 25
-42 13 0 21 -11 29 -38 5 -21 21 -49 35 -62 14 -13 23 -30 21 -37 -3 -7 -1
-15 4 -18 6 -4 10 5 10 19 0 14 -26 65 -57 113 -31 48 -67 106 -81 128 -22 37
-23 38 -17 10z"/>
<path d="M651 1458 c7 -13 20 -35 30 -49 10 -14 16 -29 13 -31 -10 -11 20 -58
38 -58 10 0 18 -7 18 -17 0 -26 43 -83 63 -83 10 0 17 -8 17 -18 0 -10 11 -29
24 -41 13 -12 26 -36 30 -52 4 -20 11 -29 25 -29 15 0 22 -11 30 -50 6 -28 11
-59 12 -68 1 -25 29 78 29 108 0 17 -22 48 -71 100 -39 41 -114 128 -166 193
-53 64 -97 117 -100 117 -2 0 2 -10 8 -22z"/>
</g>
</svg>
